<?xml version="1.0" encoding="iso-8859-1"?>
<!-- Generator: Adobe Illustrator 19.1.0, SVG Export Plug-In . SVG Version: 6.00 Build 0)  -->
<svg version="1.1" id="Layer_1" xmlns="http://www.w3.org/2000/svg" xmlns:xlink="http://www.w3.org/1999/xlink" x="0px" y="0px"
	 viewBox="0 0 142.667 39.333" style="enable-background:new 0 0 142.667 39.333;" xml:space="preserve">
<g>
	<g>
		
			<rect x="10.745" y="15.665" transform="matrix(0.7071 0.7071 -0.7071 0.7071 15.7992 -5.7907)" style="fill:#FFFFFF;" width="8.288" height="1.021"/>
	</g>
	<g>
		
			<rect x="32.434" y="12.032" transform="matrix(0.7071 0.7071 -0.7071 0.7071 21.0873 -18.5574)" style="fill:#FFFFFF;" width="1.021" height="8.288"/>
	</g>
	<g>
		<rect x="23.247" y="7.471" style="fill:#FFFFFF;" width="1.532" height="11.074"/>
	</g>
	<g>
		
			<rect x="16.283" y="1.927" transform="matrix(0.427 0.9042 -0.9042 0.427 17.9189 -9.9931)" style="fill:#FFFFFF;" width="1.123" height="14.432"/>
	</g>
	<g>
		
			<rect x="24.16" y="8.772" transform="matrix(0.9043 0.4269 -0.4269 0.9043 6.9874 -12.5013)" style="fill:#FFFFFF;" width="14.432" height="1.123"/>
	</g>
	<path style="fill:#3B97D3;" d="M15.404,19.757c0.071,0.3,0.26,0.353,0.558,0.364c1.553,0.059,3.107,0.124,4.656,0.252
		c0.435,0.036,0.852,0.291,1.277,0.445c0.046,0.365-0.259,0.519-0.459,0.718c-0.656,0.655-1.198,1.385-1.585,2.231
		c-0.197,0.43-0.268,0.875-0.23,1.34c0.048,0.583,0.349,0.824,0.923,0.715c0.459-0.088,0.845-0.348,1.236-0.587
		c0.579-0.353,1.101-0.794,1.695-1.123c0.827-0.458,1.572-0.449,2.17,0.275c1.59,1.922,3.741,3.158,5.6,4.747
		c0.192,0.164,0.448,0.282,0.468,0.586c0.006,0.139,0.008,0.278,0.018,0.417c0.087,1.238-0.435,1.827-1.669,1.877
		c-0.154,0.006-0.309,0.001-0.521,0.001c0.142,0.253,0.27,0.45,0.367,0.661c0.304,0.661,0.034,1.153-0.69,1.235
		c-0.234,0.027-0.478,0-0.713-0.035c-0.212-0.031-0.418-0.107-0.67-0.174c-0.015,0.457,0.386,1.01-0.213,1.292
		c-0.544,0.257-1.118,0.298-1.609-0.175c-0.576,1.064-0.647,1.093-1.895,0.772c-0.06-0.237,0.085-0.423,0.16-0.625
		c0.091-0.244,0.18-0.488,0.164-0.755c-0.054-0.909-0.468-1.228-1.47-1.125c-0.197-0.151-0.11-0.357-0.095-0.548
		c0.073-0.942-0.317-1.266-1.212-1.032c-0.299,0.078-0.593,0.435-0.882,0.217c-0.289-0.218-0.026-0.602-0.046-0.913
		c-0.052-0.804-0.607-1.179-1.36-0.901c-0.188,0.07-0.362,0.167-0.534,0.27c-0.166,0.1-0.331,0.282-0.541,0.165
		c-0.22-0.123-0.132-0.353-0.104-0.544c0.061-0.405,0.002-0.798-0.095-1.188c-0.151-0.605-0.487-0.784-1.068-0.538
		c-0.405,0.172-0.778,0.408-1.122,0.686c-0.152,0.123-0.282,0.294-0.514,0.261c-0.893-0.788-1.902-1.37-3.045-1.715
		c-0.113-0.343,0.149-0.56,0.287-0.809c0.821-1.483,1.578-2.997,2.188-4.581c0.214-0.557,0.43-1.117,0.407-1.734
		C15.232,20.026,15.25,19.86,15.404,19.757z"/>
	<path style="fill:#3B97D3;" d="M34.441,19.026c3.227-1.632,6.595-2.984,9.757-4.939c0,0.267,0,0.46,0,0.652
		c0,5.276-0.005,10.553,0.01,15.829c0.001,0.435-0.121,0.684-0.515,0.883c-1.174,0.593-2.332,1.218-3.488,1.847
		c-0.41,0.223-0.681,0.126-0.858-0.284c-0.428-0.986-0.845-1.977-1.283-2.959c-0.078-0.175-0.234-0.316-0.354-0.472
		c-0.082-0.125-0.036-0.281-0.105-0.41c-1.158-3.226-2.162-6.5-3.131-9.786C34.439,19.269,34.435,19.148,34.441,19.026z"/>
	<path style="fill:#FFFFFF;" d="M37.777,29.217c-0.023,0.122-0.045,0.244-0.068,0.366c-1.534,0.782-2.083,0.459-2.571-0.87
		c-0.246,0.271-0.476,0.529-0.712,0.782c-0.718,0.77-1.219,0.875-2.177,0.46c-0.179-0.077-0.356-0.156-0.534-0.235
		c-1.253-0.977-2.523-1.933-3.752-2.94c-0.673-0.552-1.278-1.188-1.909-1.791c-0.202-0.193-0.379-0.412-0.587-0.597
		c-0.578-0.512-1.202-0.582-1.867-0.177c-0.833,0.507-1.639,1.058-2.475,1.56c-0.229,0.137-0.518,0.212-0.787,0.238
		c-0.539,0.051-0.862-0.194-0.861-0.738c0.001-0.524,0.025-1.108,0.252-1.559c0.371-0.737,0.901-1.397,1.393-2.068
		c0.222-0.303,0.513-0.555,0.772-0.83c0.132-0.089,0.273-0.166,0.394-0.269c1.271-1.08,2.701-1.17,4.191-0.606
		c1.016,0.385,1.985,0.89,2.992,1.302c0.811,0.332,1.649,0.579,2.553,0.273c0.012-0.05,0.046-0.109,0.036-0.158
		c-0.213-1.044-0.188-1.154,0.744-1.648c0.52-0.276,1.089-0.461,1.636-0.686c0.044,0.064,0.088,0.128,0.132,0.192
		c-0.306,0.369-0.787,0.422-1.176,0.641c-0.842,0.474-0.928,0.69-0.508,1.57c0.103,0.216,0.189,0.445,0.327,0.638
		c1.332,1.871,2.012,4.011,2.573,6.201c0.025,0.097,0.053,0.192,0.085,0.287c0.298,0.899,0.782,1.308,1.564,0.702
		C37.532,29.185,37.656,29.156,37.777,29.217z"/>
	<path style="fill:#FFFFFF;" d="M15.402,29.021c0.498-0.359,0.969-0.763,1.499-1.065c0.746-0.425,1.245-0.17,1.362,0.671
		c0.076,0.541,0.073,1.094,0.104,1.618c1.855-1.227,2.738-0.633,2.458,1.478c0.631-0.315,1.278-0.768,1.943-0.274
		c0.502,0.373,0.297,0.975,0.209,1.398c0.392,0.055,0.864-0.015,1.121,0.188c0.427,0.338,0.597,0.911,0.484,1.465
		c-0.077,0.379-0.302,0.728-0.461,1.09c-0.434,0.306-0.831,0.702-1.31,0.9c-0.89,0.368-1.467-0.061-1.718-1.209
		c-0.49,0.227-1.025,0.365-1.356-0.185c-0.25-0.415-0.373-0.905-0.562-1.384c-1.567-0.146-1.713-0.276-2.085-1.938
		c-0.2,0.084-0.39,0.17-0.586,0.245c-0.849,0.327-1.468-0.023-1.614-0.908C14.763,30.342,14.987,29.659,15.402,29.021z"/>
	<path style="fill:#FFFFFF;" d="M9.025,29.25c1.159,1.5,2.253,2.915,3.425,4.431c-0.598,0-1.102,0.014-1.603-0.011
		c-0.112-0.006-0.242-0.128-0.321-0.23c-0.775-0.987-1.541-1.981-2.337-3.008C8.447,30.068,8.704,29.704,9.025,29.25z"/>
	<path style="fill:#FFFFFF;" d="M33.817,35.004c1.11-1.435,2.146-2.772,3.272-4.227c0.228,0.566,0.395,0.94,0.524,1.328
		c0.035,0.104-0.01,0.273-0.08,0.366c-0.586,0.779-1.18,1.553-1.79,2.312c-0.093,0.115-0.283,0.202-0.433,0.211
		C34.854,35.021,34.396,35.004,33.817,35.004z"/>
	<path style="fill:#FFFFFF;" d="M36.965,14.138c0.483,0.004,0.966,0.008,1.449,0.012c0.016,0.117,0.021,0.237,0.049,0.352
		c0.309,1.282,0.31,1.282-1.029,1.817C37.276,15.583,37.12,14.86,36.965,14.138z"/>
	<path style="fill:#FFFFFF;" d="M8.885,14.138c0.458,0.002,0.915,0.005,1.373,0.007c-0.028,0.172-0.056,0.345-0.106,0.659
		C9.688,14.56,9.286,14.349,8.885,14.138z"/>
	<path style="fill:#FFFFFF;" d="M15.404,19.757c-0.119-0.832-0.739-1.238-1.39-1.6c-0.521-0.289-1.161-0.434-1.578-0.825
		c-0.968-0.905-2.144-1.333-3.342-1.774C7.849,15.1,6.621,14.595,5.4,14.078c-0.697-0.295-1.391-0.427-2.151-0.258
		c0,4.988-0.001,9.945,0.005,14.902c0,0.144,0.036,0.353,0.132,0.42c0.733,0.511,1.472,1.018,2.238,1.477
		c0.399,0.239,0.812,0.144,1.132-0.215c0.199-0.223,0.404-0.443,0.576-0.686c0.458-0.649,0.899-1.31,1.332-1.946
		c0.787,0.273,1.537,0.52,2.276,0.796c0.415,0.155,0.671,0.07,0.859-0.348c0.145-0.323,0.368-0.611,0.557-0.914
		c0.63-1.196,1.31-2.369,1.877-3.594C14.814,22.459,15.505,21.219,15.404,19.757z M14.468,22.01
		c-0.854,2.185-1.919,4.265-3.278,6.267c-0.721-0.285-1.452-0.573-2.224-0.878c1.821-2.928,3.417-5.875,3.793-9.383
		c-0.004-0.002-0.006-0.003-0.01-0.005c-0.015-0.007-0.039,0.006,0.011-0.003c0,0.003-0.001,0.005-0.001,0.008
		C15.201,19.104,15.328,19.812,14.468,22.01z"/>
	<path style="fill:#3B97D3;" d="M25.843,7.847h-4.232c-0.55,0-1-0.45-1-1V4.284c0-0.55,0.45-1,1-1h4.232c0.55,0,1,0.45,1,1v2.563
		C26.843,7.397,26.393,7.847,25.843,7.847z"/>
	<path style="fill:#3B97D3;" d="M40.017,14.285h-4.232c-0.55,0-1-0.45-1-1v-2.563c0-0.55,0.45-1,1-1h4.232c0.55,0,1,0.45,1,1v2.563
		C41.017,13.835,40.567,14.285,40.017,14.285z"/>
	<path style="fill:#3B97D3;" d="M12.011,14.285H7.78c-0.55,0-1-0.45-1-1v-2.563c0-0.55,0.45-1,1-1h4.232c0.55,0,1,0.45,1,1v2.563
		C13.011,13.835,12.561,14.285,12.011,14.285z"/>
	<g>
		<path style="fill:#FFFFFF;" d="M33.955,17.956c-2.211-3.753-5.981-5.993-10.086-5.993c-3.805,0-7.418,1.99-9.664,5.324
			l-0.931-0.628c2.455-3.644,6.416-5.82,10.596-5.82c4.506,0,8.639,2.447,11.054,6.546L33.955,17.956z"/>
	</g>
</g>
<g>
	<path style="fill:#3B97D3;" d="M56.532,15.972v3.768h5.931v1.958h-5.931v5.352h-2.201V13.994h8.766l-0.018,1.977H56.532z"/>
	<path style="fill:#3B97D3;" d="M66.385,24.103l-1.249,2.947h-2.294l5.762-13.056h2.257l5.708,13.056h-2.35l-1.25-2.947H66.385z
		 M69.668,16.344l-2.462,5.8h4.924L69.668,16.344z"/>
	<path style="fill:#3B97D3;" d="M78.311,27.05V13.994h2.201V27.05H78.311z"/>
	<path style="fill:#3B97D3;" d="M89.841,23.096c-0.187,0.018-0.392,0.018-0.597,0.018h-3.097v3.936h-2.201V13.994h5.297
		c3.338,0,5.259,1.623,5.259,4.458c0,2.089-0.97,3.562-2.704,4.233l2.928,4.365h-2.499L89.841,23.096z M89.244,21.138
		c2.014,0,3.17-0.858,3.17-2.63c0-1.715-1.156-2.536-3.17-2.536h-3.097v5.166H89.244z"/>
	<g>
		<path style="fill:#FFFFFF;" d="M102.277,14.05c3.873,0,6.675,2.71,6.675,6.454c0,3.725-2.821,6.454-6.731,6.454h-5.237V14.05
			H102.277z M99.161,25.004h3.171c2.508,0,4.426-1.863,4.426-4.482c0-2.636-1.973-4.518-4.518-4.518h-3.079V25.004z"/>
		<path style="fill:#FFFFFF;" d="M123.368,20.504c0,3.688-2.986,6.546-6.841,6.546c-3.854,0-6.841-2.858-6.841-6.546
			c0-3.707,2.987-6.51,6.841-6.51C120.382,13.994,123.368,16.816,123.368,20.504z M111.899,20.504c0,2.563,2.121,4.592,4.648,4.592
			s4.592-2.028,4.592-4.592s-2.065-4.555-4.592-4.555C114.001,15.95,111.899,17.941,111.899,20.504z"/>
		<path style="fill:#FFFFFF;" d="M137.323,26.958l-0.018-9.644l-4.076,8.298h-1.42l-4.075-8.298v9.644h-2.047V14.05h2.581
			l4.261,8.574l4.241-8.574h2.563v12.908H137.323z"/>
	</g>
</g>
</svg>
